<?xml version="1.0" encoding="utf-8"?>
<!-- Generator: Adobe Illustrator 24.0.3, SVG Export Plug-In . SVG Version: 6.00 Build 0)  -->
<svg version="1.1" id="Capa_1" xmlns="http://www.w3.org/2000/svg" xmlns:xlink="http://www.w3.org/1999/xlink" x="0px" y="0px"
	 viewBox="0 0 512 512" style="enable-background:new 0 0 512 512;" xml:space="preserve">
<style type="text/css">
	.st0{fill:#FFFFFF;}
</style>
<path class="st0" d="M457,352.3c-16-9.6-49.3-29.6-49.3-81.6c0-43.9,29.4-66.1,45.2-78l0.3-0.2c6.3-4.8,7.8-13.7,3.4-20.3
	c-35.3-52.9-95.8-54.5-107.6-54.3h-0.1c-8.1,0-15.8,0.9-23.1,2.4c2.7-2.2,5.3-4.5,7.8-6.9c25.2-24.4,39.1-60.4,38-98.8
	c-0.2-8.1-6.9-14.6-15-14.6c-27.3,0-58.3,16.3-81,42.6c-22.8,26.4-33.5,58.1-29.2,86.9c0.3,2.4,1.3,4.6,2.6,6.4
	c-4-1.3-8.2-2.9-12.4-4.4c-15.9-5.8-33.9-12.5-50.7-12.5c-0.3,0-34.6,0.2-68.8,21.5c-29.9,18.6-65.6,57.3-65.6,136.2
	c0,41,16,98.4,40.8,146.3c17.1,33.1,52.7,88.6,98.3,88.8h0.5c33.3,0,60.9-19.7,79.6-19.7c32,0,43.5,19.9,78.1,19.9
	c31.1,0,61.2-23.6,89.5-70.1c10.4-17.1,18.5-34,23.4-45.2c9.4-21.3,9.4-24.1,9.4-26.2C471.3,360.9,464,356.5,457,352.3z M298.5,62.1
	c12.3-14.3,27.8-24.8,42.5-29.5c-2.8,23.3-12.6,44.3-28.1,59.2c-10.8,10.5-23.8,17.3-37,19.7C277.2,95,285.1,77.6,298.5,62.1z
	 M411.4,428.6C390,463.1,367.8,482,348.9,482c-25.9,0-38.1-19.9-78.1-19.9c-27,0-52.8,19.8-80,19.7c-21.2-0.1-48.7-27.9-71.9-72.6
	c-22.8-43.9-37.5-95.9-37.5-132.5c0-51.8,17-88.8,50.6-110.1c26.1-16.6,52.8-17.5,54-17.5c23.4,0.1,55.9,20.8,79.6,20.8
	c21.3,0,49.9-21.9,83.4-21.9h0.5c8.1-0.2,46.5,0.7,73.5,30c-19.1,16.1-45.5,45-45.5,92.7c0,64.9,41.1,93.4,60.4,105.3
	C433.3,387.7,424.1,408.2,411.4,428.6z"/>
</svg>
