<?xml version="1.0" encoding="utf-8"?>
<!-- Generator: Adobe Illustrator 24.0.3, SVG Export Plug-In . SVG Version: 6.00 Build 0)  -->
<svg version="1.1" id="Bold" xmlns="http://www.w3.org/2000/svg" xmlns:xlink="http://www.w3.org/1999/xlink" x="0px" y="0px"
	 viewBox="0 0 512 512" style="enable-background:new 0 0 512 512;" xml:space="preserve">
<style type="text/css">
	.st0{fill:#FFFFFF;}
</style>
<path class="st0" d="M432,234.7c-5.7,0-11.3,0.6-16.7,1.7c-7.2-72.7-68.7-129.7-143.3-129.7c-8.8,0-16,7.2-16,16v256
	c0,8.8,7.2,16,16,16h160c44.1,0,80-35.9,80-80C512,270.6,476.1,234.7,432,234.7z"/>
<path class="st0" d="M192,154.7v224c0,8.8,7.2,16,16,16c8.8,0,16-7.2,16-16v-224c0-8.8-7.2-16-16-16
	C199.2,138.7,192,145.8,192,154.7z"/>
<path class="st0" d="M128,218.7v160c0,8.8,7.2,16,16,16s16-7.2,16-16v-160c0-8.8-7.2-16-16-16S128,209.8,128,218.7z"/>
<path class="st0" d="M64,378.7c0,8.8,7.2,16,16,16s16-7.2,16-16v-160c0-8.8-7.2-16-16-16s-16,7.2-16,16V378.7z"/>
<path class="st0" d="M16,394.7c8.8,0,16-7.2,16-16v-96c0-8.8-7.2-16-16-16s-16,7.2-16,16v96C0,387.5,7.2,394.7,16,394.7z"/>
</svg>
