<?xml version="1.0" encoding="utf-8"?>
<!-- Generator: Adobe Illustrator 24.0.3, SVG Export Plug-In . SVG Version: 6.00 Build 0)  -->
<svg version="1.1" id="regular" xmlns="http://www.w3.org/2000/svg" xmlns:xlink="http://www.w3.org/1999/xlink" x="0px" y="0px"
	 viewBox="0 0 512 512" style="enable-background:new 0 0 512 512;" xml:space="preserve">
<style type="text/css">
	.st0{fill:#FFFFFF;}
</style>
<path class="st0" d="M377,356.7c-68.9-45.4-155.6-56.4-257.6-32.7c-20.5,4.8-13.6,35.8,7.3,31.2C290.7,317,351.6,386,368.2,386
	C384,386,390.2,365.4,377,356.7z"/>
<path class="st0" d="M112.1,275.1C203.9,253.4,308.1,266,384,308c18.5,10.2,34-17.8,15.5-28c-82.7-45.7-195.6-59.5-294.7-36
	C84.2,248.8,91.5,280,112.1,275.1L112.1,275.1z"/>
<path class="st0" d="M100,191.9c96.6-29.6,232.2-13.4,308.7,36.9c17.6,11.5,35.3-15.1,17.6-26.7c-84.9-55.8-229.2-73.3-335.6-40.8
	C70.4,167.5,79.9,198.1,100,191.9L100,191.9z"/>
<path class="st0" d="M256,512c141.2,0,256-114.8,256-256S397.2,0,256,0S0,114.8,0,256S114.8,512,256,512z M256,32
	c123.5,0,224,100.5,224,224S379.5,480,256,480S32,379.5,32,256S132.5,32,256,32z"/>
</svg>
